# xmcd
#
# Track frame offsets:
#	150
#	27027
#	45869
#	66878
#	90285
#	114260
#	133400
#	151010
#	170499
#	189831
#	205572
#	224698
#	245862
#	265525
#	287500
#	302812
#	323106
#	332716
#
# Disc length: 4724 seconds
#
# Revision: 0
# Processed by: cddbd v1.5.1PL0 Copyright (c) Steve Scherf et al.
# Submitted via: audiograbber 1.83.01
#
DISCID=f1127212
DTITLE=GEORGE BENSON and bns Richard Bona - Irreplaceable
DYEAR=2004
DGENRE=Jazz
TTITLE0=GEORGE BENSON - C-Smooth
TTITLE1=GEORGE BENSON - Standing Together
TTITLE2=GEORGE BENSON - All I Know
TTITLE3=GEORGE BENSON - Cruise Control
TTITLE4=GEORGE BENSON - Poquito Spanish, Poquito Funk
TTITLE5=GEORGE BENSON - Six Play
TTITLE6=GEORGE BENSON - Whole Man
TTITLE7=GEORGE BENSON - Irreplaceable
TTITLE8=GEORGE BENSON - Loving Is Better Than Leaving
TTITLE9=GEORGE BENSON - Strings of Love
TTITLE10=GEORGE BENSON - Cell Phone*
TTITLE11=GEORGE BENSON - Black Rose*
TTITLE12=GEORGE BENSON* - Stairway to Love
TTITLE13=GEORGE BENSON* - Reason for Breathing
TTITLE14=GEORGE BENSON - Missing You*
TTITLE15=GEORGE BENSON* - Nature Boy
TTITLE16=Richard Bona - Invocation (A Prophecy)*
TTITLE17=Richard Bona - Bisso Baba (Always Together)*
EXTD=
EXTT0=
EXTT1=
EXTT2=
EXTT3=
EXTT4=
EXTT5=
EXTT6=
EXTT7=
EXTT8=
EXTT9=
EXTT10=
EXTT11=
EXTT12=
EXTT13=
EXTT14=
EXTT15=
EXTT16=
EXTT17=
PLAYORDER=
